<svg xmlns="http://www.w3.org/2000/svg" viewBox="0 0 894.3 567.9">
  <defs>
    <style>
      .cls-1 {
        fill: #fff;
      }
    </style>
  </defs>
  <g id="箭头下" transform="translate(-67.8 -327.3)">
    <path id="路径_1" data-name="路径 1" class="cls-1" d="M363.331,641.775,617.746,387.361l19.587,19.586L382.918,661.362Z"/>
    <path id="路径_2" data-name="路径 2" class="cls-1" d="M382.9,677.4l-35.7-35.7L617.7,371.2l35.7,35.7L382.9,677.4Zm-3.5-35.7,3.5,3.5L621.2,406.9l-3.5-3.5L379.4,641.7Z"/>
    <path id="路径_3" data-name="路径 3" class="cls-1" d="M382.867,387.307,637.28,641.72l-19.586,19.587L363.28,406.893Z"/>
    <path id="路径_4" data-name="路径 4" class="cls-1" d="M617.8,677.4,347.2,406.9l35.7-35.7L653.4,641.7l-35.6,35.7ZM379.4,406.9,617.7,645.2l3.5-3.5L382.9,403.4l-3.5,3.5Z"/>
    <path id="路径_5" data-name="路径 5" d="M962.1,327.3,514.9,895.2,67.8,327.3Z"/>
  </g>
</svg>
